<svg width="16" height="16" viewBox="0 0 16 16" fill="none" xmlns="http://www.w3.org/2000/svg">
<path d="M5 2C5.41421 2 5.75 1.66421 5.75 1.25C5.75 0.835786 5.41421 0.5 5 0.5V2ZM0.5 5C0.5 5.41421 0.835786 5.75 1.25 5.75C1.66421 5.75 2 5.41421 2 5H0.5ZM14 5C14 5.41421 14.3358 5.75 14.75 5.75C15.1642 5.75 15.5 5.41421 15.5 5H14ZM11 0.5C10.5858 0.5 10.25 0.835786 10.25 1.25C10.25 1.66421 10.5858 2 11 2V0.5ZM11 14C10.5858 14 10.25 14.3358 10.25 14.75C10.25 15.1642 10.5858 15.5 11 15.5V14ZM15.5 11C15.5 10.5858 15.1642 10.25 14.75 10.25C14.3358 10.25 14 10.5858 14 11H15.5ZM2 11C2 10.5858 1.66421 10.25 1.25 10.25C0.835786 10.25 0.5 10.5858 0.5 11H2ZM5 15.5C5.41421 15.5 5.75 15.1642 5.75 14.75C5.75 14.3358 5.41421 14 5 14V15.5ZM5 0.5H2.75V2H5V0.5ZM2.75 0.5C1.50736 0.5 0.5 1.50736 0.5 2.75H2C2 2.33579 2.33579 2 2.75 2V0.5ZM0.5 2.75V5H2V2.75H0.5ZM15.5 5V2.75H14V5H15.5ZM15.5 2.75C15.5 1.50736 14.4926 0.5 13.25 0.5V2C13.6642 2 14 2.33579 14 2.75H15.5ZM13.25 0.5H11V2H13.25V0.5ZM11 15.5H13.25V14H11V15.5ZM13.25 15.5C14.4926 15.5 15.5 14.4926 15.5 13.25H14C14 13.6642 13.6642 14 13.25 14V15.5ZM15.5 13.25V11H14V13.25H15.5ZM0.5 11V13.25H2V11H0.5ZM0.5 13.25C0.5 14.4926 1.50736 15.5 2.75 15.5V14C2.33579 14 2 13.6642 2 13.25H0.5ZM2.75 15.5H5V14H2.75V15.5Z" fill="white"/>
</svg>
