<svg width="20" height="20" viewBox="0 0 20 20" fill="none" xmlns="http://www.w3.org/2000/svg">
<path d="M10 1.80167C12.67 1.80167 12.9867 1.81167 14.0408 1.86C15.1792 1.91167 16.235 2.14 17.0475 2.9525C17.86 3.765 18.0883 4.82083 18.14 5.95917C18.1883 7.01333 18.1983 7.33 18.1983 10C18.1983 12.67 18.1883 12.9867 18.14 14.0408C18.0883 15.1792 17.86 16.235 17.0475 17.0475C16.235 17.86 15.1792 18.0883 14.0408 18.14C12.9867 18.1883 12.67 18.1983 10 18.1983C7.33 18.1983 7.01333 18.1883 5.95917 18.14C4.82083 18.0883 3.765 17.86 2.9525 17.0475C2.14 16.235 1.91167 15.1792 1.86 14.0408C1.81167 12.9867 1.80167 12.67 1.80167 10C1.80167 7.33 1.81167 7.01333 1.86 5.95917C1.91167 4.82083 2.14 3.765 2.9525 2.9525C3.765 2.14 4.82083 1.91167 5.95917 1.86C7.01333 1.81167 7.33 1.80167 10 1.80167ZM10 0C7.28417 0 6.94333 0.0116667 5.87667 0.06C4.25167 0.134167 2.82417 0.5325 1.67833 1.67833C0.5325 2.82417 0.134167 4.25167 0.06 5.87667C0.0116667 6.94333 0 7.28417 0 10C0 12.7158 0.0116667 13.0567 0.06 14.1233C0.134167 15.7483 0.5325 17.1758 1.67833 18.3217C2.82417 19.4675 4.25167 19.8658 5.87667 19.94C6.94333 19.9883 7.28417 20 10 20C12.7158 20 13.0567 19.9883 14.1233 19.94C15.7483 19.8658 17.1758 19.4675 18.3217 18.3217C19.4675 17.1758 19.8658 15.7483 19.94 14.1233C19.9883 13.0567 20 12.7158 20 10C20 7.28417 19.9883 6.94333 19.94 5.87667C19.8658 4.25167 19.4675 2.82417 18.3217 1.67833C17.1758 0.5325 15.7483 0.134167 14.1233 0.06C13.0567 0.0116667 12.7158 0 10 0Z" fill="#F77737"/>
<path d="M9.99975 4.86499C7.16391 4.86499 4.86475 7.16416 4.86475 10C4.86475 12.8358 7.16391 15.135 9.99975 15.135C12.8356 15.135 15.1348 12.8358 15.1348 10C15.1348 7.16416 12.8356 4.86499 9.99975 4.86499ZM9.99975 13.3333C8.15891 13.3333 6.66641 11.8408 6.66641 10C6.66641 8.15916 8.15891 6.66666 9.99975 6.66666C11.8406 6.66666 13.3331 8.15916 13.3331 10C13.3331 11.8408 11.8406 13.3333 9.99975 13.3333Z" fill="#F77737"/>
<path d="M15.3382 5.86143C16.0009 5.86143 16.5382 5.32417 16.5382 4.66143C16.5382 3.99868 16.0009 3.46143 15.3382 3.46143C14.6754 3.46143 14.1382 3.99868 14.1382 4.66143C14.1382 5.32417 14.6754 5.86143 15.3382 5.86143Z" fill="#F77737"/>
</svg>
