<svg width="151" height="43" viewBox="0 0 151 43" fill="none" xmlns="http://www.w3.org/2000/svg">
<path d="M21.1714 0C14.5401 0 8.6389 3.03815 4.74531 7.79793H11.8633C14.4996 5.95478 17.7037 4.8813 21.1714 4.8813C24.6391 4.8813 27.8432 5.95478 30.4795 7.79793H37.5975C33.7242 3.03815 27.8027 0 21.1714 0ZM41.3491 14.7047L37.4555 20.9633C37.4555 21.024 37.4555 21.105 37.4555 21.1658C37.4555 27.6269 33.6836 33.2171 28.2082 35.83L24.3349 42.0683C34.5353 40.5492 42.3631 31.7588 42.3631 21.1658C42.3428 18.8973 41.998 16.7301 41.3491 14.7047ZM13.9115 35.7084C8.57806 33.0551 4.90755 27.5662 4.88727 21.2063L0.953118 14.8667C0.344745 16.8516 0 18.9581 0 21.1455C0 31.6981 7.72634 40.4277 17.8456 42.0278L13.9115 35.7084Z" fill="white"/>
<path d="M18.6163 39.4956L18.4946 39.2525L20.3806 36.3157L6.32713 13.6713H2.59577H2.53493L1.64265 12.1117L0.263672 9.72168H12.5731L12.6137 9.82295L14.8444 13.6713H10.971L22.7532 32.6294L24.7811 29.4494L27.0929 33.156L20.7659 42.9996L18.6163 39.4956Z" fill="white"/>
<path d="M42.2416 9.72168L30.9665 27.8898L28.6546 31.6166L26.3225 27.8898L15.0474 9.72168H19.6913L28.6546 24.1428L37.5977 9.72168H42.2416Z" fill="white"/>
<path d="M58.5801 18.6141V7.21094H60.6891V18.6141H58.5801Z" fill="white"/>
<path d="M63.6704 18.6141V7.21094H65.4752L71.8632 14.9886V7.21094H73.9925V18.6141H72.2282L65.7794 10.7352V18.6141H63.6704Z" fill="white"/>
<path d="M76.4663 12.9226C76.4663 9.56037 79.0215 7.04883 82.4689 7.04883C84.3346 7.04883 85.8353 7.67671 86.9912 8.89198L85.6122 10.2085C84.8416 9.39833 83.8885 8.93248 82.5703 8.93248C80.3396 8.93248 78.697 10.5528 78.697 12.9023C78.697 15.3126 80.3802 16.9127 82.5703 16.9127C83.8073 16.9127 84.8619 16.4468 85.673 15.6164L87.052 16.9127C85.9569 18.1482 84.3752 18.8166 82.5703 18.8166C79.0823 18.7964 76.4663 16.2646 76.4663 12.9226Z" fill="white"/>
<path d="M88.1875 12.9226C88.1875 9.51986 90.7224 7.04883 94.251 7.04883C97.7593 7.04883 100.294 9.49961 100.294 12.9226C100.294 16.3253 97.7593 18.7964 94.2307 18.7964C90.7224 18.7964 88.1875 16.3456 88.1875 12.9226ZM98.0837 12.9226C98.0837 10.5326 96.502 8.95274 94.251 8.95274C91.9797 8.95274 90.3979 10.5326 90.3979 12.9226C90.3979 15.3126 91.9797 16.8924 94.251 16.8924C96.502 16.8924 98.0837 15.3126 98.0837 12.9226Z" fill="white"/>
<path d="M102.768 18.6141V7.21094H104.573L110.961 14.9886V7.21094H113.09V18.6141H111.326L104.877 10.7352V18.6141H102.768Z" fill="white"/>
<path d="M62.3317 35.2431L57.3633 23.8398H59.6143L63.3456 32.772H63.4065L67.1581 23.8398H69.3685L64.4204 35.2431H62.3317Z" fill="white"/>
<path d="M73.2418 33.3797H80.2787V35.2431H71.1733V23.8398H80.1165V25.7032H73.2418V28.4376H79.3864V30.301H73.2418V33.3797Z" fill="white"/>
<path d="M82.5908 35.2431V23.8398H84.3957L90.7836 31.6175V23.8398H92.9129V35.2431H91.1486L84.6998 27.3641V35.2431H82.5908Z" fill="white"/>
<path d="M104.533 23.8398V25.7032H100.781V35.2431H98.6518V25.7032H94.9204V23.8398H104.533Z" fill="white"/>
<path d="M106.175 30.463V23.8398H108.305V30.0782C108.305 32.1239 109.42 33.2176 111.245 33.2176C113.09 33.2176 114.206 32.1036 114.206 30.0782V23.8398H116.295V30.463C116.295 33.5214 114.368 35.4253 111.245 35.4253C108.142 35.4253 106.175 33.5214 106.175 30.463Z" fill="white"/>
<path d="M126.048 35.2431L122.844 31.4352H121.06V35.2431H118.951V23.8398H123.655C126.718 23.8398 128.543 25.2171 128.543 27.6477C128.543 29.5718 127.387 30.8276 125.359 31.2732L128.705 35.2431H126.048ZM121.039 25.683V29.5718H123.574C125.379 29.5718 126.434 29.0857 126.434 27.6679C126.434 26.2906 125.399 25.683 123.595 25.683H121.039Z" fill="white"/>
<path d="M132.761 33.3797H139.798V35.2431H130.693V23.8398H139.636V25.7032H132.761V28.4376H138.906V30.301H132.761V33.3797Z" fill="white"/>
<path d="M141.238 33.7844L142.191 32.1641C143.408 32.9945 144.726 33.5009 146.145 33.5009C147.585 33.5009 148.335 32.9135 148.335 32.1641C148.335 31.1919 147.565 30.888 145.78 30.5032C143.164 29.9563 141.562 28.9841 141.562 26.9587C141.562 24.8117 143.489 23.6572 145.983 23.6572C147.605 23.6572 148.903 24.1231 150.14 25.0143L149.005 26.5536C148.214 25.9865 147.058 25.5814 145.861 25.5814C144.543 25.5814 143.773 26.027 143.773 26.9992C143.773 27.8296 144.482 28.2752 146.328 28.6803C149.126 29.2879 150.546 30.0374 150.546 32.0425C150.546 34.1692 148.66 35.4453 146.003 35.4453C144.138 35.425 142.455 34.7566 141.238 33.7844Z" fill="white"/>
</svg>
